<svg width="400" height="400" version="1.1" viewBox="0 0 105.83 105.83" xmlns="http://www.w3.org/2000/svg"><path d="m37.228 90.805c3.7507-3.9722 9.3327-6.1981 15.797-6.1981 17.977 0.32455 33.563-16.548 31.562-34.543-4.9927-39.863-61.652-37.333-63.42 2.5011 0 0.19755 0.15878 0.35629 0.35637 0.35629h4.34 5.5397c0.19406 0 0.34579-0.15522 0.34932-0.34924 1.5949-27.766 41.498-27.47 42.377 0.5609-0.11292 11.444-9.9114 20.817-21.358 20.891-18.129-0.14111-31.643 13.522-31.618 31.453 0 0.19755 0.15878 0.3563 0.35637 0.3563h62.803c0.19406 0 0.35284-0.15522 0.35284-0.34924 0-5.6513-4.5799-10.23-10.232-10.23h-39.716c-0.26463 0-0.44106-0.28574-0.31403-0.51857 0.77978-1.4428 1.7254-2.7657 2.8228-3.9298z" fill="#04a" stroke-width=".26458"/><path d="m19.37 78.73c-21.22-27.11-1.7607-68.01 33.069-68.14 39.582-0.26458 57.69 48.982 28.055 74.416-0.21171 0.18344-0.13761 0.51857 0.12702 0.60323 3.2991 1.0301 6.2489 2.8609 8.62 5.2668 0.13761 0.13758 0.35637 0.14463 0.49751 0.0071 9.8126-9.5212 15.963-22.796 16.093-37.485 0.26111-29.124-23.379-53.169-52.51-53.395-45.813-0.49387-70.308 54.721-39.801 88.22 0.17289 0.19049 0.4834 0.13758 0.58572-0.1023 1.3761-3.2208 3.1403-6.2334 5.2609-8.9673 0.09879-0.127 0.09879-0.29985 0-0.42685z" fill="#07d" stroke-width=".26458"/><path d="m63.493 52.922c0 5.8453-4.7387 10.583-10.585 10.583-14.04-0.55737-14.036-20.612 0-21.166 5.8466 0 10.585 4.7377 10.585 10.583z" fill="#017" stroke-width=".26458"/></svg>
